<svg width="40" height="40" viewBox="0 0 40 40" fill="none" xmlns="http://www.w3.org/2000/svg">
<path d="M7.518 0.00757324H13.0035C14.8516 0.00757324 16.6762 0.00757343 18.489 0.0878488C20.3018 0.168124 22.0204 0.213996 23.6802 0.363078L23.4566 4.14749H8.76578C7.72623 4.05806 6.69179 4.36655 5.88177 5.00758C5.54721 5.38721 5.29453 5.82858 5.13881 6.30538C4.98308 6.78218 4.9275 7.28464 4.97537 7.78282V26.7318H0.00780976L0.00780976 6.83098C-0.0382379 5.90772 0.119746 4.98558 0.471079 4.12693C0.822412 3.26828 1.3589 2.49313 2.04427 1.85391C3.56061 0.581301 5.51856 -0.0791325 7.518 0.00757324ZM0.97307 16.5787H21.2553V20.4893H0.97307V16.5787Z" fill="#3A001E"/>
<path fill-rule="evenodd" clip-rule="evenodd" d="M36.5144 11.1905C36.5278 10.8498 36.6259 10.5173 36.8002 10.2217C36.9746 9.92599 37.22 9.67597 37.5154 9.49306C38.5372 8.81664 39.2948 7.82405 39.6656 6.67597C39.9789 5.80593 40.0739 4.87549 39.9428 3.96235C39.8116 3.04922 39.4581 2.17991 38.9118 1.42705C38.5707 0.944947 38.1536 0.518335 37.676 0.162969C37.5648 0.0546198 37.4536 0.0666587 37.3918 0.162969C37.3736 0.221856 37.3736 0.284665 37.3918 0.343552V3.72646C37.3984 3.92867 37.3634 4.13012 37.2889 4.31895C37.2144 4.50779 37.1018 4.6802 36.9579 4.82603C36.814 4.97186 36.6415 5.08817 36.4508 5.16811C36.26 5.24805 36.0548 5.29 35.8471 5.29151H32.6094C32.3918 5.29198 32.177 5.24331 31.9819 5.14931C31.7867 5.05532 31.6166 4.91856 31.4849 4.74976C31.3423 4.5842 31.2359 4.39204 31.1722 4.18504C31.1084 3.97805 31.0887 3.76056 31.1142 3.54588V0.271319C31.1142 0.175008 31.1018 0.0666588 31.0153 0.0666588C30.9832 0.0432152 30.9442 0.030542 30.9041 0.030542C30.864 0.030542 30.825 0.0432152 30.7929 0.0666588C30.5906 0.221269 30.3968 0.386022 30.2121 0.56025C29.335 1.38954 28.7509 2.46869 28.5438 3.64219C28.3191 4.69328 28.4067 5.78498 28.7963 6.78929C29.1859 7.79359 29.8614 8.66887 30.7435 9.31248C30.9725 9.45725 31.1839 9.62688 31.3737 9.81811C31.6674 10.186 31.8242 10.6402 31.8186 11.1063V28.8033C31.8452 29.2625 31.8162 29.7232 31.7321 30.1758C31.717 30.2691 31.6817 30.3582 31.6284 30.4371C31.5751 30.516 31.5051 30.5829 31.4231 30.6332C30.8181 30.9862 30.3028 31.4677 29.9155 32.0418C29.3877 32.7446 29.0556 33.5687 28.9517 34.4336C28.8477 35.2986 28.9754 36.1751 29.3223 36.9777C29.6988 37.8659 30.3357 38.6263 31.1533 39.1638C31.971 39.7013 32.9331 39.9921 33.9195 39.9998C34.9058 40.0075 35.8726 39.7318 36.699 39.2072C37.5254 38.6825 38.1747 37.9321 38.5657 37.0499C39.084 35.9473 39.1781 34.6999 38.831 33.5353C38.484 32.3707 37.7188 31.3663 36.6751 30.7055C36.5775 30.6529 36.4942 30.5786 36.4319 30.4886C36.3696 30.3987 36.3301 30.2955 36.3167 30.1878C36.3108 30.0996 36.3108 30.0111 36.3167 29.9229C36.2858 29.4258 36.2858 28.9273 36.3167 28.4301L36.5144 19.0158V11.1905ZM35.5755 32.7882C35.526 32.6678 35.3901 32.6678 35.2789 32.6678L32.931 32.6557C32.9145 32.6557 32.8925 32.6477 32.8705 32.6397C32.8266 32.6236 32.7827 32.6076 32.7827 32.6557C32.3872 33.3781 31.9671 34.1004 31.5469 34.8227C31.5329 34.8398 31.5252 34.861 31.5252 34.8829C31.5252 34.9048 31.5329 34.926 31.5469 34.9431C31.9671 35.6534 32.3749 36.3637 32.7827 37.074C32.7954 37.1013 32.8165 37.1241 32.843 37.1392C32.8696 37.1543 32.9003 37.1609 32.931 37.1583H35.5137C35.5369 37.1085 35.574 37.0656 35.6114 37.0224C35.6735 36.9506 35.7361 36.8782 35.7361 36.773L36.7371 35.0755C36.7681 35.0357 36.785 34.9871 36.785 34.9371C36.785 34.8871 36.7681 34.8385 36.7371 34.7987L35.5755 32.7882Z" fill="#3A001E"/>
<path d="M1.77313 28.6341L4.67368 34.1216L1.57497 39.9931H0L3.1807 34.1147L0.215235 28.6273L1.77313 28.6341ZM5.46287 33.5385V34.6566H3.72391V33.5385H5.46287ZM8.98863 28.6341L6.00267 34.1216L9.20045 40H7.62547L4.52677 34.1147L7.43074 28.6273L8.98863 28.6341Z" fill="#3A001E"/>
<path d="M16.3551 28.6287C17.1118 28.6141 17.8661 28.7113 18.5878 28.9164C19.1769 29.093 19.6948 29.4224 20.0762 29.863C20.4908 30.3856 20.7717 30.9842 20.8985 31.6158C21.0875 32.5053 21.1747 33.4098 21.159 34.3153C21.1757 35.2195 21.0897 36.1229 20.9022 37.0114C20.7754 37.6431 20.4945 38.2417 20.0799 38.7642C19.6985 39.2049 19.1806 39.5342 18.5915 39.7109C17.8698 39.916 17.1156 40.0132 16.3589 39.9986C15.5129 39.9986 14.7303 39.9852 14.0109 39.9584C13.289 39.9317 12.608 39.8982 11.9643 39.8547L12.6453 38.6973L14.316 38.7375C14.9262 38.7542 15.6109 38.7642 16.3589 38.7642C17.0102 38.7917 17.6565 38.6488 18.2194 38.3528C18.7307 38.0198 19.085 37.5271 19.2129 36.9713C19.4383 36.101 19.5408 35.2086 19.518 34.3153C19.5445 33.4224 19.4457 32.53 19.224 31.6593C19.0921 31.1023 18.7389 30.6076 18.2305 30.2678C17.6686 29.9695 17.0219 29.8253 16.37 29.853C15.6258 29.853 14.9672 29.853 14.3793 29.853L12.6564 29.8864L11.9606 28.7759C12.6043 28.7324 13.2853 28.6989 14.0072 28.6722C14.729 28.6454 15.5105 28.6287 16.3551 28.6287ZM13.5346 28.7725V39.8547H11.9606V28.7759L13.5346 28.7725Z" fill="#3A001E"/>
</svg>
