<svg width="60" height="60" viewBox="0 0 60 60" fill="none" xmlns="http://www.w3.org/2000/svg">
<rect width="60" height="60" rx="15" fill="#3A001E"/>
<path d="M19.7024 13.5062H24.2279C25.7526 13.5062 27.2579 13.5062 28.7534 13.5725C30.249 13.6387 31.6669 13.6765 33.0362 13.7995L32.8517 16.9217H20.7318C19.8741 16.8479 19.0207 17.1024 18.3525 17.6313C18.0764 17.9444 17.868 18.3086 17.7395 18.7019C17.611 19.0953 17.5652 19.5098 17.6047 19.9208V35.5537H13.5064L13.5064 19.1356C13.4685 18.3739 13.5988 17.6131 13.8886 16.9047C14.1785 16.1963 14.6211 15.5568 15.1865 15.0295C16.4375 13.9796 18.0528 13.4347 19.7024 13.5062ZM14.3028 27.1774H31.0356V30.4036H14.3028V27.1774Z" fill="white"/>
<path fill-rule="evenodd" clip-rule="evenodd" d="M43.6244 22.7322C43.6354 22.4511 43.7163 22.1768 43.8602 21.9329C44.004 21.6889 44.2065 21.4827 44.4502 21.3318C45.2932 20.7737 45.9182 19.9548 46.2241 19.0077C46.4826 18.2899 46.561 17.5223 46.4528 16.7689C46.3446 16.0156 46.053 15.2984 45.6022 14.6773C45.3208 14.2796 44.9768 13.9276 44.5827 13.6344C44.4909 13.5451 44.3992 13.555 44.3482 13.6344C44.3332 13.683 44.3332 13.7348 44.3482 13.7834V16.5743C44.3537 16.7412 44.3248 16.9073 44.2633 17.0631C44.2019 17.2189 44.109 17.3612 43.9903 17.4815C43.8715 17.6018 43.7293 17.6977 43.5719 17.7637C43.4145 17.8296 43.2452 17.8643 43.0739 17.8655H40.4028C40.2232 17.8659 40.046 17.8257 39.885 17.7482C39.7241 17.6706 39.5837 17.5578 39.475 17.4186C39.3574 17.282 39.2696 17.1234 39.217 16.9527C39.1645 16.7819 39.1482 16.6025 39.1692 16.4254V13.7238C39.1692 13.6444 39.159 13.555 39.0876 13.555C39.0612 13.5357 39.029 13.5252 38.9959 13.5252C38.9628 13.5252 38.9306 13.5357 38.9041 13.555C38.7373 13.6825 38.5773 13.8185 38.425 13.9622C37.7014 14.6464 37.2195 15.5367 37.0487 16.5048C36.8633 17.372 36.9356 18.2726 37.257 19.1012C37.5784 19.9297 38.1356 20.6518 38.8633 21.1828C39.0523 21.3022 39.2267 21.4422 39.3833 21.5999C39.6256 21.9035 39.755 22.2782 39.7503 22.6627V37.2627C39.7723 37.6416 39.7483 38.0216 39.6789 38.395C39.6665 38.472 39.6374 38.5455 39.5934 38.6106C39.5495 38.6757 39.4917 38.7309 39.4241 38.7724C38.925 39.0636 38.4998 39.4608 38.1803 39.9345C37.7448 40.5143 37.4709 41.1941 37.3851 41.9077C37.2994 42.6214 37.4047 43.3444 37.6909 44.0066C38.0015 44.7394 38.5269 45.3667 39.2015 45.8102C39.876 46.2536 40.6698 46.4935 41.4836 46.4999C42.2973 46.5062 43.0949 46.2788 43.7767 45.8459C44.4585 45.4131 44.9941 44.794 45.3167 44.0662C45.7443 43.1565 45.8219 42.1274 45.5356 41.1666C45.2493 40.2058 44.618 39.3772 43.7569 38.832C43.6765 38.7887 43.6077 38.7274 43.5563 38.6531C43.5049 38.5789 43.4724 38.4938 43.4613 38.4049C43.4564 38.3322 43.4564 38.2592 43.4613 38.1864C43.4358 37.7763 43.4358 37.365 43.4613 36.9549L43.6244 29.188V22.7322ZM42.8498 40.5502C42.809 40.4509 42.6968 40.4509 42.6051 40.4509L40.668 40.441C40.6544 40.441 40.6363 40.4344 40.6182 40.4277C40.582 40.4145 40.5457 40.4013 40.5457 40.441C40.2195 41.0369 39.8728 41.6328 39.5262 42.2288C39.5146 42.2428 39.5083 42.2604 39.5083 42.2784C39.5083 42.2965 39.5146 42.314 39.5262 42.3281C39.8728 42.9141 40.2093 43.5001 40.5457 44.086C40.5562 44.1086 40.5736 44.1273 40.5955 44.1398C40.6174 44.1523 40.6428 44.1578 40.668 44.1556H42.7988C42.8179 44.1145 42.8486 44.0791 42.8794 44.0435C42.9306 43.9843 42.9823 43.9246 42.9823 43.8377L43.8081 42.4373C43.8337 42.4045 43.8476 42.3644 43.8476 42.3231C43.8476 42.2818 43.8337 42.2417 43.8081 42.2089L42.8498 40.5502Z" fill="white"/>
<path d="M14.9628 37.1231L17.3558 41.6503L14.7994 46.4943H13.5L16.1241 41.6446L13.6776 37.1175L14.9628 37.1231ZM18.0069 41.1693V42.0917H16.5722V41.1693H18.0069ZM20.9156 37.1231L18.4522 41.6503L21.0904 46.5H19.791L17.2346 41.6446L19.6304 37.1175L20.9156 37.1231Z" fill="white"/>
<path d="M26.993 37.1187C27.6173 37.1066 28.2395 37.1868 28.8349 37.356C29.3209 37.5017 29.7482 37.7735 30.0628 38.137C30.4049 38.5681 30.6366 39.0619 30.7413 39.5831C30.8972 40.3169 30.9692 41.0631 30.9562 41.8101C30.97 42.5561 30.899 43.3014 30.7443 44.0344C30.6397 44.5555 30.408 45.0494 30.0659 45.4805C29.7513 45.844 29.324 46.1157 28.838 46.2615C28.2426 46.4307 27.6203 46.5109 26.9961 46.4988C26.2982 46.4988 25.6525 46.4878 25.059 46.4657C24.4634 46.4436 23.9016 46.416 23.3706 46.3801L23.9323 45.4253L25.3107 45.4584C25.8142 45.4722 26.379 45.4805 26.9961 45.4805C27.5334 45.5032 28.0666 45.3853 28.531 45.1411C28.9528 44.8664 29.2452 44.4598 29.3506 44.0013C29.5366 43.2833 29.6212 42.5471 29.6024 41.8101C29.6242 41.0735 29.5427 40.3373 29.3598 39.6189C29.251 39.1594 28.9596 38.7512 28.5402 38.4709C28.0766 38.2248 27.5431 38.1059 27.0053 38.1287C26.3913 38.1287 25.8479 38.1287 25.3629 38.1287L23.9415 38.1563L23.3675 37.2401C23.8986 37.2042 24.4603 37.1766 25.0559 37.1545C25.6515 37.1325 26.2961 37.1187 26.993 37.1187ZM24.666 37.2373V46.3801H23.3675V37.2401L24.666 37.2373Z" fill="white"/>
</svg>
