<svg width="37" height="36" viewBox="0 0 37 36" fill="none" xmlns="http://www.w3.org/2000/svg">
<path fill-rule="evenodd" clip-rule="evenodd" d="M23 28C27.98 28 32 26 32 23V4C32 2 28 0 23 0C18 0 14 2 14 4V11C16.34 11.98 18.34 13.62 19.76 15.7C20.74 15.892 21.82 15.998 23 15.998C25.62 15.998 27.8 15.476 29.36 14.626C29.5815 14.5043 29.797 14.3721 30.006 14.23V16.99C30.006 17.46 29.632 18.19 28.402 18.862C27.21 19.512 25.382 19.99 23.002 19.99C22.526 19.99 22.0727 19.972 21.642 19.936C21.802 20.5933 21.9087 21.2667 21.962 21.956C22.2993 21.9747 22.646 21.984 23.002 21.984C25.622 21.984 27.802 21.462 29.362 20.612C29.5835 20.4903 29.799 20.3581 30.008 20.216V22.976C30.008 23.448 29.71 24.148 28.426 24.84C27.162 25.52 25.266 25.976 23.006 25.976C22.546 25.976 22.1007 25.9573 21.67 25.92C21.5162 26.5848 21.3096 27.2362 21.052 27.868C21.6813 27.9387 22.332 27.974 23.004 27.974L23 28ZM28.4 12.88C29.63 12.208 30.004 11.478 30.004 11.008V8.248C29.7973 8.38933 29.582 8.52133 29.358 8.644C27.802 9.494 25.618 10.016 22.998 10.016C20.378 10.016 18.198 9.494 16.638 8.644C16.4165 8.52228 16.201 8.39013 15.992 8.248V11.008C15.992 11.478 16.366 12.208 17.596 12.878C18.788 13.528 20.616 14.006 22.996 14.006C25.376 14.006 27.196 13.528 28.396 12.878L28.4 12.88ZM16 5C16 4.424 16.25 3.87 16.716 3.532C16.97 3.348 17.246 3.164 17.464 3.064C18.01 2.812 20.744 1.998 23.004 1.998C25.264 1.998 27.224 2.452 28.544 3.064C28.792 3.178 29.066 3.356 29.308 3.532C29.77 3.866 30.008 4.416 30.008 4.986V4.998C30.008 5.468 29.634 6.198 28.404 6.87C27.212 7.52 25.384 7.998 23.004 7.998C20.624 7.998 18.804 7.518 17.604 6.87C16.374 6.2 16 5.468 16 5Z" fill="black"/>
<path fill-rule="evenodd" clip-rule="evenodd" d="M19 25C19 29.98 14.98 34 10 34C5.02 34 1 29.98 1 25C1 20.02 5.02 16 10 16C14.98 16 19 20.02 19 25ZM17 25C17 28.86 13.86 32 10 32C6.14 32 3 28.86 3 25C3 21.14 6.14 18 10 18C13.86 18 17 21.14 17 25Z" fill="black"/>
</svg>
