<svg width="24" height="24" viewBox="0 0 24 24" fill="none" xmlns="http://www.w3.org/2000/svg">
<path d="M20.664 5.25298C20.862 5.42916 20.9819 5.67673 20.9975 5.9413C21.0131 6.20587 20.923 6.4658 20.747 6.66398L10.081 18.664C9.98717 18.7696 9.87205 18.8541 9.74321 18.9119C9.61437 18.9698 9.47473 18.9997 9.33349 18.9997C9.19225 18.9997 9.05261 18.9698 8.92377 18.9119C8.79493 18.8541 8.67981 18.7696 8.58599 18.664L3.25299 12.664C3.08711 12.4644 3.00529 12.2082 3.02481 11.9495C3.04433 11.6907 3.16367 11.4497 3.35761 11.2773C3.55155 11.1049 3.80491 11.0146 4.06417 11.0256C4.32343 11.0365 4.56827 11.1478 4.74699 11.336L9.33299 16.495L19.253 5.33498C19.4293 5.13713 19.677 5.01737 19.9415 5.00199C20.2061 4.98662 20.4659 5.07689 20.664 5.25298Z" fill="#865A57"/>
</svg>
