<svg width="35" height="28" viewBox="0 0 35 28" fill="none" xmlns="http://www.w3.org/2000/svg">
<path d="M2.10862 4.58811C1.94737 4.49148 1.76336 4.43937 1.57539 4.43709C1.38741 4.43481 1.2022 4.48244 1.03864 4.57513C0.875091 4.66782 0.739058 4.80224 0.644429 4.96467C0.549799 5.12711 0.499961 5.31174 0.5 5.49973V22.4997C0.5 23.9087 1.05971 25.2599 2.05599 26.2562C3.05228 27.2525 4.40353 27.8122 5.8125 27.8122H29.1875C30.5964 27.8122 31.9477 27.2525 32.944 26.2562C33.9403 25.2599 34.5 23.9087 34.5 22.4997V5.49973C34.5 5.31174 34.4502 5.12711 34.3555 4.96467C34.2609 4.80224 34.1249 4.66782 33.9613 4.57513C33.7978 4.48244 33.6126 4.43481 33.4246 4.43709C33.2366 4.43937 33.0526 4.49148 32.8913 4.58811L17.5 13.8234L2.10862 4.58811Z" fill="#367AF2"/>
<path d="M2.10862 4.58811C1.94737 4.49148 1.76336 4.43937 1.57539 4.43709C1.38741 4.43481 1.2022 4.48244 1.03864 4.57513C0.875091 4.66782 0.739058 4.80224 0.644429 4.96467C0.549799 5.12711 0.499961 5.31174 0.5 5.49973V22.4997C0.5 23.9087 1.05971 25.2599 2.05599 26.2562C3.05228 27.2525 4.40353 27.8122 5.8125 27.8122H29.1875C30.5964 27.8122 31.9477 27.2525 32.944 26.2562C33.9403 25.2599 34.5 23.9087 34.5 22.4997V5.49973C34.5 5.31174 34.4502 5.12711 34.3555 4.96467C34.2609 4.80224 34.1249 4.66782 33.9613 4.57513C33.7978 4.48244 33.6126 4.43481 33.4246 4.43709C33.2366 4.43937 33.0526 4.49148 32.8913 4.58811L17.5 13.8234L2.10862 4.58811Z" fill="url(#paint0_linear_436_1072)"/>
<path d="M2.10862 4.58811C1.94737 4.49148 1.76336 4.43937 1.57539 4.43709C1.38741 4.43481 1.2022 4.48244 1.03864 4.57513C0.875091 4.66782 0.739058 4.80224 0.644429 4.96467C0.549799 5.12711 0.499961 5.31174 0.5 5.49973V22.4997C0.5 23.9087 1.05971 25.2599 2.05599 26.2562C3.05228 27.2525 4.40353 27.8122 5.8125 27.8122H29.1875C30.5964 27.8122 31.9477 27.2525 32.944 26.2562C33.9403 25.2599 34.5 23.9087 34.5 22.4997V5.49973C34.5 5.31174 34.4502 5.12711 34.3555 4.96467C34.2609 4.80224 34.1249 4.66782 33.9613 4.57513C33.7978 4.48244 33.6126 4.43481 33.4246 4.43709C33.2366 4.43937 33.0526 4.49148 32.8913 4.58811L17.5 13.8234L2.10862 4.58811Z" fill="url(#paint1_linear_436_1072)"/>
<path d="M2.10862 4.58811C1.94737 4.49148 1.76336 4.43937 1.57539 4.43709C1.38741 4.43481 1.2022 4.48244 1.03864 4.57513C0.875091 4.66782 0.739058 4.80224 0.644429 4.96467C0.549799 5.12711 0.499961 5.31174 0.5 5.49973V22.4997C0.5 23.9087 1.05971 25.2599 2.05599 26.2562C3.05228 27.2525 4.40353 27.8122 5.8125 27.8122H29.1875C30.5964 27.8122 31.9477 27.2525 32.944 26.2562C33.9403 25.2599 34.5 23.9087 34.5 22.4997V5.49973C34.5 5.31174 34.4502 5.12711 34.3555 4.96467C34.2609 4.80224 34.1249 4.66782 33.9613 4.57513C33.7978 4.48244 33.6126 4.43481 33.4246 4.43709C33.2366 4.43937 33.0526 4.49148 32.8913 4.58811L17.5 13.8234L2.10862 4.58811Z" fill="url(#paint2_linear_436_1072)" fill-opacity="0.75"/>
<path d="M2.10862 4.58811C1.94737 4.49148 1.76336 4.43937 1.57539 4.43709C1.38741 4.43481 1.2022 4.48244 1.03864 4.57513C0.875091 4.66782 0.739058 4.80224 0.644429 4.96467C0.549799 5.12711 0.499961 5.31174 0.5 5.49973V22.4997C0.5 23.9087 1.05971 25.2599 2.05599 26.2562C3.05228 27.2525 4.40353 27.8122 5.8125 27.8122H29.1875C30.5964 27.8122 31.9477 27.2525 32.944 26.2562C33.9403 25.2599 34.5 23.9087 34.5 22.4997V5.49973C34.5 5.31174 34.4502 5.12711 34.3555 4.96467C34.2609 4.80224 34.1249 4.66782 33.9613 4.57513C33.7978 4.48244 33.6126 4.43481 33.4246 4.43709C33.2366 4.43937 33.0526 4.49148 32.8913 4.58811L17.5 13.8234L2.10862 4.58811Z" fill="url(#paint3_linear_436_1072)" fill-opacity="0.7"/>
<path d="M5.8125 0.1875C4.40353 0.1875 3.05228 0.747208 2.05599 1.74349C1.05971 2.73978 0.5 4.09103 0.5 5.49999V6.77499C0.500099 6.96015 0.548584 7.14207 0.64065 7.30272C0.732716 7.46337 0.865167 7.59718 1.02487 7.69087L16.9624 17.0409C17.1254 17.1365 17.311 17.1869 17.5 17.1869C17.689 17.1869 17.8746 17.1365 18.0376 17.0409L33.9751 7.69087C34.1348 7.59718 34.2673 7.46337 34.3593 7.30272C34.4514 7.14207 34.4999 6.96015 34.5 6.77499V5.49999C34.5 4.09103 33.9403 2.73978 32.944 1.74349C31.9477 0.747208 30.5964 0.1875 29.1875 0.1875H5.8125Z" fill="url(#paint4_linear_436_1072)"/>
<defs>
<linearGradient id="paint0_linear_436_1072" x1="21.8159" y1="9.01873" x2="32.2113" y2="26.9962" gradientUnits="userSpaceOnUse">
<stop offset="0.228" stop-color="#0094F0" stop-opacity="0"/>
<stop offset="0.431" stop-color="#0094F0"/>
</linearGradient>
<linearGradient id="paint1_linear_436_1072" x1="12.6422" y1="6.89798" x2="1.078" y2="28.097" gradientUnits="userSpaceOnUse">
<stop offset="0.228" stop-color="#0094F0" stop-opacity="0"/>
<stop offset="0.431" stop-color="#0094F0"/>
</linearGradient>
<linearGradient id="paint2_linear_436_1072" x1="26.4654" y1="18.3836" x2="28.2461" y2="29.9181" gradientUnits="userSpaceOnUse">
<stop stop-color="#2764E7" stop-opacity="0"/>
<stop offset="1" stop-color="#2764E7"/>
</linearGradient>
<linearGradient id="paint3_linear_436_1072" x1="22.7615" y1="7.30811" x2="26.0127" y2="30.8085" gradientUnits="userSpaceOnUse">
<stop offset="0.533" stop-color="#FF6CE8" stop-opacity="0"/>
<stop offset="1" stop-color="#FF6CE8"/>
</linearGradient>
<linearGradient id="paint4_linear_436_1072" x1="10.6001" y1="-5.11012" x2="22.5872" y2="23.8132" gradientUnits="userSpaceOnUse">
<stop stop-color="#6CE0FF"/>
<stop offset="0.462" stop-color="#29C3FF"/>
<stop offset="1" stop-color="#4894FE"/>
</linearGradient>
</defs>
</svg>
