<svg width="25" height="30" viewBox="0 0 25 30" fill="none" xmlns="http://www.w3.org/2000/svg">
<path d="M13.3402 28.23C13.0954 28.4058 12.8016 28.5004 12.5002 28.5004C12.1988 28.5004 11.905 28.4058 11.6602 28.23C4.41666 23.067 -3.27084 12.447 4.50066 4.773C6.63417 2.67427 9.50741 1.49869 12.5002 1.5C15.5002 1.5 18.3787 2.6775 20.4997 4.7715C28.2712 12.4455 20.5837 23.064 13.3402 28.23Z" stroke="black" stroke-width="2" stroke-linecap="round" stroke-linejoin="round"/>
<path d="M12.5 15C13.2956 15 14.0587 14.6839 14.6213 14.1213C15.1839 13.5587 15.5 12.7956 15.5 12C15.5 11.2044 15.1839 10.4413 14.6213 9.87868C14.0587 9.31607 13.2956 9 12.5 9C11.7044 9 10.9413 9.31607 10.3787 9.87868C9.81607 10.4413 9.5 11.2044 9.5 12C9.5 12.7956 9.81607 13.5587 10.3787 14.1213C10.9413 14.6839 11.7044 15 12.5 15Z" stroke="black" stroke-width="2" stroke-linecap="round" stroke-linejoin="round"/>
</svg>
