<svg width="28" height="26" viewBox="0 0 28 26" fill="none" xmlns="http://www.w3.org/2000/svg">
<g clip-path="url(#clip0_286_17)">
<path d="M13 24C14.9778 24 16.9112 23.4135 18.5557 22.3147C20.2002 21.2159 21.4819 19.6541 22.2388 17.8268C22.9957 15.9996 23.1937 13.9889 22.8078 12.0491C22.422 10.1093 21.4696 8.32746 20.0711 6.92894C18.6725 5.53041 16.8907 4.578 14.9509 4.19215C13.0111 3.8063 11.0004 4.00433 9.17316 4.76121C7.3459 5.51809 5.78412 6.79981 4.6853 8.4443C3.58649 10.0888 3 12.0222 3 14C3 15.6 3.37556 17.1111 4.04444 18.4522C4.54778 19.4644 3.84778 20.83 3.58111 21.8267C3.52203 22.0471 3.52202 22.2792 3.58108 22.4996C3.64014 22.7201 3.75619 22.9211 3.91756 23.0824C4.07892 23.2438 4.27993 23.3599 4.50037 23.4189C4.7208 23.478 4.9529 23.478 5.17333 23.4189C6.17 23.1522 7.53555 22.4522 8.54778 22.9567C9.93135 23.6437 11.4553 24.0008 13 24Z" stroke="#3A001E" stroke-width="1.5" stroke-linecap="round" stroke-linejoin="round"/>
<rect x="15" width="13" height="13" rx="6.5" fill="#865A57"/>
<path d="M22.179 3.68182L22.0682 7.75568H21.0284L20.9148 3.68182H22.179ZM21.5483 9.57386C21.3608 9.57386 21.1998 9.50758 21.0653 9.375C20.9309 9.24053 20.8646 9.07955 20.8665 8.89205C20.8646 8.70644 20.9309 8.54735 21.0653 8.41477C21.1998 8.2822 21.3608 8.21591 21.5483 8.21591C21.7282 8.21591 21.8864 8.2822 22.0227 8.41477C22.1591 8.54735 22.2282 8.70644 22.2301 8.89205C22.2282 9.01705 22.1951 9.13163 22.1307 9.2358C22.0682 9.33807 21.9858 9.42045 21.8835 9.48295C21.7812 9.54356 21.6695 9.57386 21.5483 9.57386Z" fill="white"/>
</g>
<defs>
<clipPath id="clip0_286_17">
<rect width="28" height="26" fill="white"/>
</clipPath>
</defs>
</svg>
