<svg width="28" height="26" viewBox="0 0 28 26" fill="none" xmlns="http://www.w3.org/2000/svg">
<path d="M14 23C15.9778 23 17.9112 22.4135 19.5557 21.3147C21.2002 20.2159 22.4819 18.6541 23.2388 16.8268C23.9957 14.9996 24.1937 12.9889 23.8078 11.0491C23.422 9.10929 22.4696 7.32746 21.0711 5.92894C19.6725 4.53041 17.8907 3.578 15.9509 3.19215C14.0111 2.8063 12.0004 3.00433 10.1732 3.76121C8.3459 4.51809 6.78412 5.79981 5.6853 7.4443C4.58649 9.08879 4 11.0222 4 13C4 14.6 4.37556 16.1111 5.04444 17.4522C5.54778 18.4644 4.84778 19.83 4.58111 20.8267C4.52203 21.0471 4.52202 21.2792 4.58108 21.4996C4.64014 21.7201 4.75619 21.9211 4.91756 22.0824C5.07892 22.2438 5.27993 22.3599 5.50037 22.4189C5.7208 22.478 5.9529 22.478 6.17333 22.4189C7.17 22.1522 8.53555 21.4522 9.54778 21.9567C10.9313 22.6437 12.4553 23.0008 14 23Z" stroke="#3A001E" stroke-width="1.5" stroke-linecap="round" stroke-linejoin="round"/>
</svg>
