<svg width="23" height="23" viewBox="0 0 23 23" fill="none" xmlns="http://www.w3.org/2000/svg">
<path d="M11.5 21.5C13.4778 21.5 15.4112 20.9135 17.0557 19.8147C18.7002 18.7159 19.9819 17.1541 20.7388 15.3268C21.4957 13.4996 21.6937 11.4889 21.3078 9.5491C20.922 7.60929 19.9696 5.82746 18.5711 4.42894C17.1725 3.03041 15.3907 2.078 13.4509 1.69215C11.5111 1.3063 9.50042 1.50433 7.67316 2.26121C5.8459 3.01809 4.28412 4.29981 3.1853 5.9443C2.08649 7.58879 1.5 9.52219 1.5 11.5C1.5 13.1 1.87556 14.6111 2.54444 15.9522C3.04778 16.9644 2.34778 18.33 2.08111 19.3267C2.02203 19.5471 2.02202 19.7792 2.08108 19.9996C2.14014 20.2201 2.25619 20.4211 2.41756 20.5824C2.57892 20.7438 2.77993 20.8599 3.00037 20.9189C3.2208 20.978 3.4529 20.978 3.67333 20.9189C4.67 20.6522 6.03555 19.9522 7.04778 20.4567C8.43135 21.1437 9.95526 21.5008 11.5 21.5Z" stroke="#3A001E" stroke-width="1.5" stroke-linecap="round" stroke-linejoin="round"/>
</svg>
