<svg width="52" height="52" viewBox="0 0 52 52" fill="none" xmlns="http://www.w3.org/2000/svg">
<g clip-path="url(#clip0_657_277)">
<rect width="52" height="52" rx="25" fill="#3A001E"/>
<path d="M9 52V49.5C9 44.8587 10.7911 40.4075 13.9792 37.1256C17.1673 33.8437 21.4913 32 26 32C30.5087 32 34.8327 33.8437 38.0208 37.1256C41.2089 40.4075 43 44.8587 43 49.5V52M26 32C28.5764 32 31.0473 30.9464 32.869 29.0711C34.6908 27.1957 35.7143 24.6522 35.7143 22C35.7143 19.3478 34.6908 16.8043 32.869 14.9289C31.0473 13.0536 28.5764 12 26 12C23.4236 12 20.9527 13.0536 19.131 14.9289C17.3092 16.8043 16.2857 19.3478 16.2857 22C16.2857 24.6522 17.3092 27.1957 19.131 29.0711C20.9527 30.9464 23.4236 32 26 32Z" fill="white"/>
<path d="M9 52V49.5C9 44.8587 10.7911 40.4075 13.9792 37.1256C17.1673 33.8437 21.4913 32 26 32M26 32C30.5087 32 34.8327 33.8437 38.0208 37.1256C41.2089 40.4075 43 44.8587 43 49.5V52M26 32C28.5764 32 31.0473 30.9464 32.869 29.0711C34.6908 27.1957 35.7143 24.6522 35.7143 22C35.7143 19.3478 34.6908 16.8043 32.869 14.9289C31.0473 13.0536 28.5764 12 26 12C23.4236 12 20.9527 13.0536 19.131 14.9289C17.3092 16.8043 16.2857 19.3478 16.2857 22C16.2857 24.6522 17.3092 27.1957 19.131 29.0711C20.9527 30.9464 23.4236 32 26 32Z" stroke="white" stroke-linecap="round" stroke-linejoin="round"/>
</g>
<defs>
<clipPath id="clip0_657_277">
<rect width="52" height="52" rx="25" fill="white"/>
</clipPath>
</defs>
</svg>
