<svg width="29" height="28" viewBox="0 0 29 28" fill="none" xmlns="http://www.w3.org/2000/svg">
<path d="M14.5 12C17.2959 12 19.5625 9.60012 19.5625 6.63971C19.5625 3.6793 17.2959 1.27942 14.5 1.27942C11.7041 1.27942 9.4375 3.6793 9.4375 6.63971C9.4375 9.60012 11.7041 12 14.5 12Z" stroke="black" stroke-width="2"/>
<path d="M1 23.1471C1 21.2515 1.71116 19.4337 2.97703 18.0933C4.2429 16.753 5.95979 16 7.75 16H21.25C23.0402 16 24.7571 16.753 26.023 18.0933C27.2888 19.4337 28 21.2515 28 23.1471C28 24.0948 27.6444 25.0038 27.0115 25.6739C26.3785 26.3441 25.5201 26.7206 24.625 26.7206H4.375C3.47989 26.7206 2.62145 26.3441 1.98851 25.6739C1.35558 25.0038 1 24.0948 1 23.1471Z" stroke="black" stroke-width="2" stroke-linejoin="round"/>
</svg>
