<svg width="33" height="30" viewBox="0 0 33 30" fill="none" xmlns="http://www.w3.org/2000/svg">
<path d="M23.9019 29L11.8382 17.2494C11.6297 17.0702 11.3677 16.9722 11.0973 16.9722C10.8268 16.9722 10.5648 17.0702 10.3563 17.2494L1.53418 23.8482M21.6597 16.9716C20.8029 16.9716 19.9811 16.6176 19.3752 15.9875C18.7693 15.3574 18.4289 14.5028 18.4289 13.6117C18.4289 12.7206 18.7693 11.866 19.3752 11.2359C19.9811 10.6058 20.8029 10.2518 21.6597 10.2518C22.5166 10.2518 23.3383 10.6058 23.9442 11.2359C24.5501 11.866 24.8905 12.7206 24.8905 13.6117C24.8905 14.5028 24.5501 15.3574 23.9442 15.9875C23.3383 16.6176 22.5166 16.9716 21.6597 16.9716Z" stroke="black" stroke-width="2" stroke-linecap="round" stroke-linejoin="round"/>
<path d="M1.5 26.7601V3.24087C1.5 2.64681 1.74313 2.07708 2.17591 1.65701C2.60868 1.23694 3.19565 1.00095 3.80769 1.00095H12.3231C12.8502 0.986043 13.3667 1.14684 13.7866 1.45658C14.2065 1.76632 14.5044 2.20631 14.6308 2.70329L15.3462 5.4808H29.1923C29.8043 5.4808 30.3913 5.71679 30.8241 6.13686C31.2569 6.55692 31.5 7.12666 31.5 7.72072V26.7601C31.5 27.3541 31.2569 27.9239 30.8241 28.3439C30.3913 28.764 29.8043 29 29.1923 29H3.80769C3.19565 29 2.60868 28.764 2.17591 28.3439C1.74313 27.9239 1.5 27.3541 1.5 26.7601Z" stroke="black" stroke-width="2" stroke-linecap="round" stroke-linejoin="round"/>
</svg>
