<svg width="33" height="32" viewBox="0 0 33 32" fill="none" xmlns="http://www.w3.org/2000/svg">
<path d="M15.1481 12.2355L2.5539 24.8907C2.21994 25.2222 1.95488 25.6164 1.774 26.0508C1.59312 26.4852 1.5 26.9511 1.5 27.4216C1.5 27.8921 1.59312 28.358 1.774 28.7924C1.95488 29.2268 2.21994 29.621 2.5539 29.9525C3.22834 30.6234 4.14093 31 5.09219 31C6.04346 31 6.95605 30.6234 7.63049 29.9525L20.2657 17.3535M26.5892 21.2654L31.0006 16.8537C31.3204 16.5337 31.5 16.0999 31.5 15.6475C31.5 15.1951 31.3204 14.7613 31.0006 14.4414L18.06 1.4995C17.7401 1.17967 17.3063 1 16.854 1C16.4017 1 15.9679 1.17967 15.648 1.4995L11.2366 5.91126C10.9168 6.23119 10.7372 6.66504 10.7372 7.11742C10.7372 7.56979 10.9168 8.00365 11.2366 8.32357L24.1772 21.2654C24.4971 21.5853 24.9309 21.7649 25.3832 21.7649C25.8355 21.7649 26.2693 21.5853 26.5892 21.2654Z" stroke="black" stroke-width="2" stroke-linecap="round" stroke-linejoin="round"/>
</svg>
