<svg width="35" height="34" viewBox="0 0 35 34" fill="none" xmlns="http://www.w3.org/2000/svg">
<g clip-path="url(#clip0_436_1088)">
<path d="M17.5 0C12.9923 0 8.66531 1.79217 5.48047 4.97914C2.29236 8.16739 0.500912 12.4912 0.5 17C0.5 21.5069 2.29297 25.8339 5.48047 29.0209C8.66531 32.2078 12.9923 34 17.5 34C22.0077 34 26.3347 32.2078 29.5195 29.0209C32.707 25.8339 34.5 21.5069 34.5 17C34.5 12.4931 32.707 8.16611 29.5195 4.97914C26.3347 1.79217 22.0077 0 17.5 0Z" fill="url(#paint0_linear_436_1088)"/>
<path d="M8.19519 16.8206C13.1518 14.6616 16.4561 13.2382 18.1083 12.5504C22.8311 10.5866 23.8113 10.2455 24.4514 10.234C24.5922 10.2317 24.9057 10.2665 25.1102 10.4319C25.2802 10.5713 25.328 10.7599 25.3519 10.8923C25.3732 11.0246 25.4024 11.3261 25.3785 11.5614C25.1235 14.2496 24.0158 20.7728 23.4527 23.7837C23.2163 25.0576 22.7461 25.4847 22.2919 25.5264C21.3038 25.6173 20.5547 24.874 19.5985 24.2474C18.103 23.2665 17.2583 22.6561 15.8053 21.699C14.1266 20.593 15.2157 19.9849 16.1719 18.9915C16.4216 18.7315 20.7725 14.775 20.8549 14.4161C20.8655 14.3712 20.8761 14.2039 20.7752 14.1157C20.6769 14.0272 20.5308 14.0575 20.4246 14.0814C20.2732 14.1154 17.8852 15.6954 13.2527 18.821C12.5753 19.2869 11.9618 19.514 11.4093 19.502C10.8036 19.489 9.63488 19.1589 8.76629 18.8768C7.70379 18.5307 6.85644 18.3476 6.93082 17.7598C6.96801 17.4538 7.39035 17.1406 8.19519 16.8206Z" fill="white"/>
</g>
<defs>
<linearGradient id="paint0_linear_436_1088" x1="1700.5" y1="0" x2="1700.5" y2="3400" gradientUnits="userSpaceOnUse">
<stop stop-color="#2AABEE"/>
<stop offset="1" stop-color="#229ED9"/>
</linearGradient>
<clipPath id="clip0_436_1088">
<rect width="34" height="34" fill="white" transform="translate(0.5)"/>
</clipPath>
</defs>
</svg>
