<svg width="17" height="15" viewBox="0 0 17 15" fill="none" xmlns="http://www.w3.org/2000/svg">
<path d="M0 0H17V15H10C4.47715 15 0 10.5228 0 5V0Z" fill="white"/>
<path d="M10.5 4.07721V6.84644L12.3 7.74644" stroke="black" stroke-linecap="round" stroke-linejoin="round"/>
<path d="M14.8795 7.53871C14.636 8.56538 14.0394 9.47382 13.194 10.1053C12.3486 10.7367 11.3083 11.051 10.2547 10.9932C9.20108 10.9355 8.20131 10.5093 7.43005 9.78922C6.65878 9.06912 6.16509 8.1009 6.03525 7.05376C5.9054 6.00661 6.14766 4.94713 6.71968 4.06047C7.2917 3.17382 8.15712 2.51636 9.16468 2.20301C10.1722 1.88966 11.2579 1.94033 12.2319 2.34618C13.2059 2.75203 14.0063 3.48724 14.4932 4.42333" stroke="black" stroke-linecap="round"/>
<path d="M15 3.0387V4.76946H13.2692" stroke="black" stroke-linecap="round" stroke-linejoin="round"/>
</svg>
