<svg width="160" height="58" viewBox="0 0 160 58" fill="none" xmlns="http://www.w3.org/2000/svg">
<path d="M11.4328 0.648266H19.7747C22.5851 0.648266 25.3598 0.648267 28.1166 0.767683C30.8733 0.8871 33.4869 0.955338 36.0109 1.17711L35.6708 6.80676H13.3303C11.7494 6.67372 10.1763 7.13264 8.94451 8.08623C8.43573 8.65096 8.05149 9.30753 7.81467 10.0168C7.57786 10.7261 7.49333 11.4736 7.56613 12.2146V57.2518H0.0118764V10.7987C-0.0581491 9.42525 0.1821 8.0535 0.716378 6.77618C1.25066 5.49886 2.06651 4.34576 3.10876 3.39485C5.41468 1.50174 8.39218 0.519284 11.4328 0.648266ZM1.47976 25.2993H32.3233V31.1166H1.47976V25.2993Z" fill="white"/>
<path d="M74.0365 1.19293L88.0409 28.0444L73.0797 56.7754H65.4754L80.8325 28.0108L66.5146 1.15937L74.0365 1.19293ZM91.8513 25.1914V30.6624H83.4552V25.1914H91.8513ZM108.874 1.19293L94.4575 28.0444L109.897 56.8089H102.293L87.3316 28.0108L101.353 1.15937L108.874 1.19293Z" fill="white"/>
<path d="M138.103 0.0073139C141.551 -0.067225 144.987 0.428409 148.275 1.47443C150.96 2.37536 153.319 4.0551 155.057 6.30228C156.946 8.96725 158.226 12.02 158.804 15.2415C159.665 19.7778 160.062 24.3908 159.991 29.0085C160.067 33.62 159.675 38.2272 158.821 42.7585C158.243 45.98 156.963 49.0327 155.074 51.6977C153.336 53.9449 150.977 55.6246 148.292 56.5256C145.004 57.5716 141.568 58.0672 138.12 57.9927C134.266 57.9927 130.7 57.9244 127.422 57.788C124.133 57.6515 121.03 57.4809 118.097 57.2591L121.2 51.3565L128.812 51.5612C131.592 51.6465 134.712 51.6977 138.12 51.6977C141.088 51.8379 144.032 51.1091 146.597 49.5994C148.927 47.9014 150.541 45.3883 151.124 42.5538C152.151 38.1154 152.618 33.5645 152.514 29.0085C152.634 24.4548 152.184 19.9039 151.175 15.4633C150.574 12.6225 148.964 10.0994 146.648 8.36649C144.087 6.84532 141.141 6.11007 138.171 6.2511C134.78 6.2511 131.779 6.2511 129.1 6.2511L121.25 6.4217L118.08 0.757934C121.013 0.53616 124.116 0.365564 127.405 0.229088C130.694 0.0926118 134.254 0.0073139 138.103 0.0073139ZM125.252 0.740874V57.2591H118.08V0.757934L125.252 0.740874Z" fill="white"/>
<path d="M55.3619 22.4675C55.3619 24.1734 55.3619 25.8794 55.3619 27.5853L55.0754 40.9259C55.0307 41.6304 55.0307 42.3368 55.0754 43.0413C55.0669 43.1662 55.0669 43.2916 55.0754 43.4166C55.0949 43.5693 55.1521 43.7154 55.2424 43.8429C55.3326 43.9704 55.4533 44.0757 55.5946 44.1501C57.1065 45.0866 58.215 46.5098 58.7177 48.1601C59.2205 49.8104 59.0841 51.578 58.3334 53.1405C57.767 54.3906 56.8264 55.4539 55.6293 56.1974C54.4322 56.9409 53.0317 57.3316 51.6028 57.3207C50.174 57.3097 48.7802 56.8977 47.5958 56.136C46.4113 55.3743 45.4888 54.2968 44.9434 53.0381C44.4409 51.9008 44.2559 50.6588 44.4065 49.4331C44.5571 48.2074 45.0381 47.0397 45.8027 46.0437C46.3637 45.2302 47.1103 44.5479 47.9866 44.0478C48.1054 43.9764 48.2068 43.8816 48.284 43.7698C48.3612 43.658 48.4124 43.5317 48.4341 43.3995C48.556 42.7582 48.598 42.1054 48.5595 41.4547V28.3189C48.5595 24.327 48.5595 20.3464 48.5595 16.3772C48.5677 15.7168 48.3405 15.0732 47.915 14.5518C47.6401 14.2809 47.3338 14.0405 47.0021 13.8353C45.7243 12.9233 44.7458 11.683 44.1815 10.2599C43.6171 8.83672 43.4902 7.28972 43.8157 5.80029C44.1156 4.13739 44.9618 2.60819 46.2323 1.43305C46.4998 1.18616 46.7807 0.952697 47.0737 0.733609C47.1201 0.700388 47.1767 0.68243 47.2348 0.68243C47.2929 0.68243 47.3494 0.700388 47.3959 0.733609C47.5212 0.733609 47.5391 0.887145 47.5391 1.02362C47.5391 2.55898 47.5391 4.1114 47.5391 5.66381C47.5022 5.96803 47.5308 6.27622 47.6231 6.56954C47.7154 6.86286 47.8696 7.13516 48.0761 7.36977C48.267 7.60896 48.5134 7.80276 48.796 7.93595C49.0786 8.06915 49.3898 8.13811 49.7051 8.13745H54.3952C54.696 8.13532 54.9933 8.07586 55.2697 7.96259C55.546 7.84931 55.7958 7.68449 56.0043 7.47784C56.2128 7.27119 56.3758 7.02689 56.4838 6.7593C56.5917 6.49171 56.6424 6.20624 56.6328 5.91971C56.6328 4.31611 56.6328 2.72957 56.6328 1.12598C56.6065 1.04253 56.6065 0.95353 56.6328 0.870085C56.7223 0.733608 56.8834 0.716549 57.0446 0.870085C57.7365 1.37365 58.3406 1.97818 58.8347 2.66134C59.6261 3.72818 60.1382 4.96003 60.3282 6.25397C60.5182 7.54792 60.3805 8.86641 59.9266 10.0993C59.3896 11.7262 58.2921 13.1327 56.8118 14.0912C56.3839 14.3504 56.0284 14.7047 55.7759 15.1237C55.5233 15.5427 55.3812 16.0138 55.3619 16.4966V22.4675Z" fill="white"/>
<path d="M53.5719 46.9308C53.733 46.9308 53.9299 46.9308 54.0015 47.1014L55.6842 49.9504C55.7292 50.0068 55.7536 50.0757 55.7536 50.1466C55.7536 50.2174 55.7292 50.2863 55.6842 50.3427L54.2342 52.7481C54.2342 52.987 54.0015 53.1064 53.912 53.294C53.8046 53.294 53.6972 53.294 53.6077 53.294H50.1707C50.1263 53.2978 50.0818 53.2884 50.0433 53.267C50.0048 53.2456 49.9743 53.2133 49.9559 53.1746C49.3652 52.1681 48.7744 51.1616 48.1658 50.1551C48.1454 50.1309 48.1344 50.1008 48.1344 50.0698C48.1344 50.0388 48.1454 50.0087 48.1658 49.9845C48.7744 48.9609 49.3831 47.9373 49.9559 46.9138C49.9559 46.8114 50.0991 46.9138 50.1707 46.9138L53.5719 46.9308Z" fill="black"/>
</svg>
