<svg width="137" height="50" viewBox="0 0 137 50" fill="none" xmlns="http://www.w3.org/2000/svg">
<path d="M9.7893 0.55885H16.9321C19.3385 0.55885 21.7143 0.55885 24.0748 0.661796C26.4353 0.764741 28.6731 0.823567 30.8344 1.01475L30.5431 5.8679H11.414C10.0604 5.75321 8.71348 6.14883 7.65874 6.97088C7.2231 7.45772 6.89409 8.02374 6.69132 8.63519C6.48854 9.24663 6.41617 9.891 6.4785 10.5299V49.355H0.0101692V9.30922C-0.0497902 8.12522 0.155923 6.94267 0.613399 5.84153C1.07087 4.7404 1.76945 3.74634 2.66188 2.9266C4.63632 1.2946 7.1858 0.447658 9.7893 0.55885ZM1.26705 21.8097H27.6768V26.8247H1.26705V21.8097Z" fill="white"/>
<path d="M63.3937 1.02839L75.385 24.1762L62.5745 48.9443H56.0634L69.2128 24.1472L56.9532 0.999454L63.3937 1.02839ZM78.6477 21.7167V26.4331H71.4585V21.7167H78.6477ZM93.2237 1.02839L80.8793 24.1762L94.0994 48.9732H87.5882L74.7777 24.1472L86.7831 0.999454L93.2237 1.02839Z" fill="white"/>
<path d="M118.251 0.00630509C121.203 -0.0579526 124.145 0.369318 126.961 1.27106C129.259 2.04772 131.28 3.49578 132.768 5.433C134.385 7.73038 135.481 10.3621 135.976 13.1392C136.713 17.0498 137.054 21.0266 136.992 25.0074C137.057 28.9827 136.722 32.9545 135.99 36.8608C135.495 39.6379 134.4 42.2696 132.782 44.567C131.294 46.5042 129.274 47.9523 126.975 48.7289C124.16 49.6307 121.217 50.058 118.265 49.9937C114.965 49.9937 111.911 49.9349 109.105 49.8172C106.289 49.6996 103.632 49.5525 101.121 49.3613L103.777 44.2729L110.295 44.4493C112.676 44.5229 115.347 44.567 118.265 44.567C120.806 44.6879 123.328 44.0595 125.524 42.7581C127.518 41.2943 128.901 39.1279 129.4 36.6843C130.279 32.8581 130.679 28.9349 130.59 25.0074C130.693 21.0817 130.308 17.1585 129.443 13.3304C128.929 10.8814 127.551 8.70641 125.567 7.21249C123.375 5.90114 120.852 5.2673 118.309 5.38888C115.405 5.38888 112.836 5.38888 110.542 5.38888L103.821 5.53595L101.106 0.653391C103.617 0.462207 106.274 0.315142 109.09 0.19749C111.907 0.0798378 114.955 0.00630509 118.251 0.00630509ZM107.247 0.638684V49.3613H101.106V0.653391L107.247 0.638684Z" fill="white"/>
<path d="M47.4036 19.3685C47.4036 20.8392 47.4036 22.3098 47.4036 23.7804L47.1584 35.2809C47.12 35.8882 47.12 36.4972 47.1584 37.1045C47.1511 37.2123 47.1511 37.3203 47.1584 37.4281C47.175 37.5597 47.224 37.6857 47.3013 37.7956C47.3786 37.9055 47.4819 37.9963 47.6029 38.0605C48.8975 38.8678 49.8466 40.0946 50.2771 41.5173C50.7076 42.94 50.5908 44.4638 49.948 45.8108C49.463 46.8885 48.6576 47.8051 47.6326 48.446C46.6076 49.087 45.4084 49.4238 44.1849 49.4144C42.9615 49.4049 41.7681 49.0497 40.7539 48.3931C39.7397 47.7365 38.9498 46.8076 38.4828 45.7225C38.0525 44.7421 37.8941 43.6714 38.0231 42.6147C38.152 41.5581 38.5639 40.5515 39.2186 39.6929C39.6989 38.9916 40.3382 38.4034 41.0885 37.9722C41.1903 37.9107 41.2771 37.829 41.3432 37.7326C41.4093 37.6362 41.4531 37.5274 41.4717 37.4134C41.5761 36.8605 41.6121 36.2978 41.579 35.7368V24.4128C41.579 20.9715 41.579 17.54 41.579 14.1183C41.5861 13.5489 41.3915 12.9942 41.0272 12.5447C40.7919 12.3111 40.5296 12.1039 40.2455 11.927C39.1514 11.1408 38.3136 10.0716 37.8304 8.84471C37.3472 7.61786 37.2385 6.28425 37.5172 5.00025C37.774 3.56672 38.4986 2.24844 39.5864 1.23539C39.8155 1.02255 40.056 0.821291 40.3068 0.632421C40.3466 0.603783 40.395 0.588301 40.4448 0.588301C40.4945 0.588301 40.5429 0.603783 40.5827 0.632421C40.69 0.632421 40.7054 0.76478 40.7054 0.882432C40.7054 2.20602 40.7054 3.54431 40.7054 4.8826C40.6737 5.14485 40.6982 5.41053 40.7773 5.6634C40.8564 5.91626 40.9883 6.151 41.1652 6.35325C41.3286 6.55945 41.5396 6.72651 41.7816 6.84134C42.0236 6.95616 42.29 7.01562 42.56 7.01504H46.5759C46.8335 7.0132 47.0881 6.96195 47.3247 6.8643C47.5613 6.76664 47.7752 6.62456 47.9537 6.44642C48.1322 6.26827 48.2718 6.05766 48.3642 5.82698C48.4567 5.5963 48.5001 5.35021 48.4919 5.1032C48.4919 3.72078 48.4919 2.35308 48.4919 0.970671C48.4693 0.898735 48.4693 0.822009 48.4919 0.750073C48.5685 0.632421 48.7065 0.617715 48.8444 0.750073C49.4369 1.18418 49.9542 1.70533 50.3772 2.29425C51.0549 3.21395 51.4934 4.27588 51.656 5.39136C51.8187 6.50683 51.7008 7.64346 51.3122 8.70629C50.8523 10.1088 49.9126 11.3213 48.6451 12.1476C48.2788 12.371 47.9744 12.6765 47.7581 13.0377C47.5419 13.3988 47.4202 13.805 47.4036 14.2212V19.3685Z" fill="white"/>
<path d="M45.8709 40.4576C46.0089 40.4576 46.1775 40.4576 46.2388 40.6047L47.6796 43.0607C47.7182 43.1093 47.739 43.1687 47.739 43.2298C47.739 43.2909 47.7182 43.3503 47.6796 43.3989L46.4381 45.4725C46.4381 45.6784 46.2388 45.7814 46.1622 45.9431C46.0702 45.9431 45.9782 45.9431 45.9016 45.9431H42.9587C42.9207 45.9464 42.8826 45.9382 42.8496 45.9198C42.8166 45.9014 42.7905 45.8735 42.7747 45.8402C42.2689 44.9725 41.7631 44.1048 41.242 43.2371C41.2245 43.2163 41.2151 43.1903 41.2151 43.1636C41.2151 43.1369 41.2245 43.111 41.242 43.0901C41.7631 42.2077 42.2842 41.3253 42.7747 40.4429C42.7747 40.3547 42.8974 40.4429 42.9587 40.4429L45.8709 40.4576Z" fill="#D9D9D9"/>
</svg>
