<svg width="31" height="31" viewBox="0 0 31 31" fill="none" xmlns="http://www.w3.org/2000/svg">
<path d="M18.1656 28.7819H12.5843V30.8749H18.1656V28.7819ZM2.46802 18.6657V13.0843H0.375002V18.6657H2.46802ZM28.2819 18.0559V18.6657H30.3749V18.0559H28.2819ZM19.4089 5.56476L24.9331 10.5364L26.3326 8.97917L20.8098 4.00755L19.4089 5.56476ZM30.3749 18.0559C30.3749 15.6991 30.3958 14.2061 29.8028 12.8722L27.8898 13.7247C28.261 14.5591 28.2819 15.515 28.2819 18.0559H30.3749ZM24.9331 10.5364C26.821 12.2359 27.5186 12.8917 27.8898 13.7247L29.8028 12.8722C29.2084 11.5368 28.0851 10.5559 26.3326 8.97917L24.9331 10.5364ZM12.6261 2.96802C14.8336 2.96802 15.6666 2.98476 16.4075 3.26941L17.1582 1.31593C15.9694 0.858257 14.6745 0.875002 12.6261 0.875002V2.96802ZM20.8098 4.00895C19.2945 2.64569 18.347 1.77081 17.1582 1.31593L16.4089 3.26941C17.1512 3.55406 17.7763 4.09546 19.4089 5.56476L20.8098 4.00895ZM12.5843 28.7819C9.92334 28.7819 8.03405 28.7791 6.59824 28.5866C5.19592 28.3982 4.38662 28.0438 3.79639 27.4535L2.31732 28.9326C3.36104 29.9791 4.68522 30.441 6.32057 30.6614C7.92521 30.8777 9.98334 30.8749 12.5843 30.8749V28.7819ZM0.375002 18.6657C0.375002 21.2666 0.372211 23.3233 0.588489 24.9294C0.808954 26.5647 1.27221 27.8889 2.31593 28.934L3.79499 27.4549C3.20616 26.8633 2.85174 26.054 2.66337 24.6503C2.47081 23.2173 2.46802 21.3266 2.46802 18.6657H0.375002ZM18.1656 30.8749C20.7666 30.8749 22.8233 30.8777 24.4293 30.6614C26.0647 30.441 27.3889 29.9777 28.434 28.934L26.9549 27.4549C26.3633 28.0438 25.554 28.3982 24.1503 28.5866C22.7173 28.7791 20.8266 28.7819 18.1656 28.7819V30.8749ZM28.2819 18.6657C28.2819 21.3266 28.2791 23.2173 28.0865 24.6517C27.8982 26.054 27.5438 26.8633 26.9535 27.4535L28.4326 28.9326C29.4791 27.8889 29.941 26.5647 30.1614 24.9294C30.3777 23.3247 30.3749 21.2666 30.3749 18.6657H28.2819ZM2.46802 13.0843C2.46802 10.4233 2.47081 8.53405 2.66337 7.09824C2.85174 5.69592 3.20616 4.88662 3.79639 4.29639L2.31732 2.81732C1.27081 3.86104 0.808954 5.18522 0.588489 6.82057C0.372211 8.42521 0.375002 10.4833 0.375002 13.0843H2.46802ZM12.6261 0.875002C10.0099 0.875002 7.94335 0.872211 6.33173 1.08849C4.68941 1.30895 3.36104 1.77221 2.31593 2.81593L3.79499 4.29499C4.38662 3.70616 5.19731 3.35174 6.6094 3.16337C8.05079 2.97081 9.95125 2.96802 12.6261 2.96802V0.875002Z" fill="black"/>
<path d="M16.7705 2.61917V6.10753C16.7705 9.39636 16.7705 11.0415 17.7919 12.0629C18.8133 13.0843 20.4584 13.0843 23.7472 13.0843H29.3286" stroke="black" stroke-width="2"/>
</svg>
