<svg width="31" height="30" viewBox="0 0 31 30" fill="none" xmlns="http://www.w3.org/2000/svg">
<path d="M8.55036 1C9.35612 1 12.5791 8.2518 12.5791 9.05755C12.5791 10.6691 10.1619 12.2806 9.35611 13.8921C8.55036 15.5036 10.1619 17.1151 11.7734 18.7266C12.4019 19.3551 14.9964 21.9496 16.6079 21.1439C18.2194 20.3381 19.8309 17.9209 21.4424 17.9209C22.2482 17.9209 29.5 21.1439 29.5 21.9496C29.5 25.1727 27.0827 27.5899 24.6655 28.3957C22.2482 29.2014 20.6367 29.2014 17.4137 28.3957C14.1906 27.5899 11.7734 26.7842 7.7446 22.7554C3.71583 18.7266 2.91007 16.3094 2.10432 13.0863C1.29856 9.86331 1.29856 8.2518 2.10432 5.83453C2.91007 3.41727 5.32734 1 8.55036 1Z" stroke="black" stroke-width="2" stroke-linecap="round" stroke-linejoin="round"/>
</svg>
