<svg width="35" height="34" viewBox="0 0 35 34" fill="none" xmlns="http://www.w3.org/2000/svg">
<path d="M26.5312 0H8.46875C4.06773 0 0.5 3.56773 0.5 7.96875V26.0312C0.5 30.4323 4.06773 34 8.46875 34H26.5312C30.9323 34 34.5 30.4323 34.5 26.0312V7.96875C34.5 3.56773 30.9323 0 26.5312 0Z" fill="url(#paint0_radial_436_1080)"/>
<path d="M26.5312 0H8.46875C4.06773 0 0.5 3.56773 0.5 7.96875V26.0312C0.5 30.4323 4.06773 34 8.46875 34H26.5312C30.9323 34 34.5 30.4323 34.5 26.0312V7.96875C34.5 3.56773 30.9323 0 26.5312 0Z" fill="url(#paint1_radial_436_1080)"/>
<path d="M17.5012 3.71875C13.8943 3.71875 13.4415 3.73455 12.0249 3.79897C10.611 3.86378 9.64587 4.08757 8.80145 4.41602C7.9278 4.75522 7.18684 5.20904 6.44867 5.94748C5.70984 6.68578 5.25602 7.42674 4.91575 8.29998C4.58638 9.14467 4.36232 10.1102 4.2987 11.5235C4.23535 12.9402 4.21875 13.3931 4.21875 17.0001C4.21875 20.6072 4.23469 21.0585 4.29897 22.4751C4.36405 23.889 4.58784 24.8541 4.91602 25.6986C5.25548 26.5722 5.7093 27.3132 6.44774 28.0513C7.18578 28.7902 7.92674 29.245 8.79972 29.5842C9.6448 29.9127 10.6101 30.1365 12.0237 30.2013C13.4405 30.2657 13.8928 30.2815 17.4996 30.2815C21.1069 30.2815 21.5582 30.2657 22.9748 30.2013C24.3887 30.1365 25.3549 29.9127 26.2 29.5842C27.0733 29.245 27.8132 28.7902 28.5511 28.0513C29.2899 27.3132 29.7436 26.5722 30.084 25.699C30.4104 24.8541 30.6346 23.8887 30.701 22.4753C30.7646 21.0588 30.7812 20.6072 30.7812 17.0001C30.7812 13.3931 30.7646 12.9405 30.701 11.5237C30.6346 10.1098 30.4104 9.1448 30.084 8.30038C29.7436 7.42674 29.2899 6.68578 28.5511 5.94748C27.8124 5.20877 27.0735 4.75495 26.1992 4.41615C25.3525 4.08757 24.3869 3.86365 22.9729 3.79897C21.5562 3.73455 21.1052 3.71875 17.4971 3.71875H17.5012ZM16.3097 6.11216C16.6634 6.11163 17.058 6.11216 17.5012 6.11216C21.0474 6.11216 21.4676 6.12491 22.868 6.18853C24.1629 6.24777 24.8658 6.46412 25.3339 6.64594C25.9538 6.88659 26.3956 7.1744 26.8602 7.63937C27.3251 8.10422 27.6127 8.54688 27.8541 9.16672C28.0359 9.63422 28.2525 10.3371 28.3115 11.632C28.3751 13.0321 28.3889 13.4526 28.3889 16.9971C28.3889 20.5416 28.3751 20.9622 28.3115 22.3622C28.2522 23.6571 28.0359 24.3599 27.8541 24.8276C27.6134 25.4474 27.3251 25.8887 26.8602 26.3533C26.3954 26.8182 25.954 27.1058 25.3339 27.3466C24.8663 27.5292 24.1629 27.7451 22.868 27.8043C21.4679 27.8679 21.0474 27.8817 17.5012 27.8817C13.9548 27.8817 13.5345 27.8679 12.1345 27.8043C10.8396 27.7445 10.1367 27.5282 9.66818 27.3464C9.04848 27.1056 8.60568 26.8179 8.14084 26.3531C7.67599 25.8882 7.38832 25.4466 7.147 24.8265C6.96518 24.3589 6.74856 23.656 6.68959 22.3611C6.62598 20.961 6.61323 20.5405 6.61323 16.9938C6.61323 13.447 6.62598 13.0288 6.68959 11.6287C6.74883 10.3337 6.96518 9.6309 7.147 9.16273C7.38779 8.5429 7.67599 8.10023 8.14097 7.63539C8.60595 7.17055 9.04848 6.88274 9.66831 6.64155C10.1365 6.45894 10.8396 6.24312 12.1345 6.18362C13.3597 6.12823 13.8345 6.11163 16.3097 6.10884V6.11216ZM24.5907 8.31738C23.7108 8.31738 22.997 9.03059 22.997 9.9106C22.997 10.7905 23.7108 11.5044 24.5907 11.5044C25.4706 11.5044 26.1845 10.7905 26.1845 9.9106C26.1845 9.03072 25.4706 8.31685 24.5907 8.31685V8.31738ZM17.5012 10.1795C13.7346 10.1795 10.6807 13.2334 10.6807 17.0001C10.6807 20.7668 13.7346 23.8193 17.5012 23.8193C21.2679 23.8193 24.3207 20.7668 24.3207 17.0001C24.3207 13.2336 21.2676 10.1795 17.5009 10.1795H17.5012ZM17.5012 12.573C19.9461 12.573 21.9284 14.5549 21.9284 17.0001C21.9284 19.4451 19.9461 21.4273 17.5012 21.4273C15.0563 21.4273 13.0742 19.4451 13.0742 17.0001C13.0742 14.5549 15.0561 12.573 17.5012 12.573Z" fill="white"/>
<defs>
<radialGradient id="paint0_radial_436_1080" cx="0" cy="0" r="1" gradientUnits="userSpaceOnUse" gradientTransform="translate(9.53125 36.6187) rotate(-90) scale(33.6965 31.3404)">
<stop stop-color="#FFDD55"/>
<stop offset="0.1" stop-color="#FFDD55"/>
<stop offset="0.5" stop-color="#FF543E"/>
<stop offset="1" stop-color="#C837AB"/>
</radialGradient>
<radialGradient id="paint1_radial_436_1080" cx="0" cy="0" r="1" gradientUnits="userSpaceOnUse" gradientTransform="translate(-5.19513 2.4492) rotate(78.681) scale(15.0625 62.0882)">
<stop stop-color="#3771C8"/>
<stop offset="0.128" stop-color="#3771C8"/>
<stop offset="1" stop-color="#6600FF" stop-opacity="0"/>
</radialGradient>
</defs>
</svg>
