<svg width="37" height="36" viewBox="0 0 37 36" fill="none" xmlns="http://www.w3.org/2000/svg">
<path d="M18.1913 4C18.5054 4 18.8066 4.12643 19.0286 4.35147C19.2507 4.57652 19.3755 4.88174 19.3755 5.2C19.3755 5.51826 19.2507 5.82348 19.0286 6.04853C18.8066 6.27357 18.5054 6.4 18.1913 6.4C15.1552 6.4 12.2436 7.62214 10.0968 9.79756C7.94997 11.973 6.74391 14.9235 6.74391 18C6.74391 21.0765 7.94997 24.027 10.0968 26.2024C12.2436 28.3779 15.1552 29.6 18.1913 29.6C18.5054 29.6 18.8066 29.7264 19.0286 29.9515C19.2507 30.1765 19.3755 30.4817 19.3755 30.8C19.3755 31.1183 19.2507 31.4235 19.0286 31.6485C18.8066 31.8736 18.5054 32 18.1913 32C14.5271 32 11.013 30.525 8.42204 27.8995C5.83108 25.274 4.37549 21.713 4.37549 18C4.37549 14.287 5.83108 10.726 8.42204 8.1005C11.013 5.475 14.5271 4 18.1913 4Z" fill="black"/>
<path d="M26.2055 14.2669C26.0068 14.0537 25.8986 13.7716 25.9037 13.4802C25.9089 13.1887 26.0269 12.9106 26.2331 12.7045C26.4392 12.4984 26.7173 12.3803 27.0087 12.3752C27.3002 12.37 27.5822 12.4782 27.7955 12.6769L32.2955 17.1769C32.5062 17.3879 32.6245 17.6738 32.6245 17.9719C32.6245 18.2701 32.5062 18.556 32.2955 18.7669L27.7955 23.2669C27.6925 23.3775 27.5683 23.4661 27.4303 23.5276C27.2923 23.5891 27.1433 23.6222 26.9923 23.6248C26.8412 23.6275 26.6912 23.5997 26.5511 23.5431C26.411 23.4865 26.2838 23.4023 26.1769 23.2955C26.0701 23.1887 25.9859 23.0614 25.9293 22.9213C25.8727 22.7813 25.8449 22.6312 25.8476 22.4802C25.8503 22.3291 25.8833 22.1801 25.9448 22.0421C26.0063 21.9041 26.095 21.7799 26.2055 21.6769L28.7855 19.0969H16.5005C16.2021 19.0969 15.916 18.9784 15.705 18.7674C15.494 18.5565 15.3755 18.2703 15.3755 17.9719C15.3755 17.6736 15.494 17.3874 15.705 17.1764C15.916 16.9655 16.2021 16.8469 16.5005 16.8469H28.7855L26.2055 14.2669Z" fill="black"/>
</svg>
