<svg width="22" height="23" viewBox="0 0 22 23" fill="none" xmlns="http://www.w3.org/2000/svg">
<path d="M11 21.5C12.9778 21.5 14.9112 20.9135 16.5557 19.8147C18.2002 18.7159 19.4819 17.1541 20.2388 15.3268C20.9957 13.4996 21.1937 11.4889 20.8078 9.5491C20.422 7.60929 19.4696 5.82746 18.0711 4.42894C16.6725 3.03041 14.8907 2.078 12.9509 1.69215C11.0111 1.3063 9.00042 1.50433 7.17316 2.26121C5.3459 3.01809 3.78412 4.29981 2.6853 5.9443C1.58649 7.58879 1 9.52219 1 11.5C1 13.1 1.37556 14.6111 2.04444 15.9522C2.54778 16.9644 1.84778 18.33 1.58111 19.3267C1.52203 19.5471 1.52202 19.7792 1.58108 19.9996C1.64014 20.2201 1.75619 20.4211 1.91756 20.5824C2.07893 20.7438 2.27993 20.8599 2.50037 20.9189C2.7208 20.978 2.9529 20.978 3.17333 20.9189C4.17 20.6522 5.53555 19.9522 6.54778 20.4567C7.93135 21.1437 9.45526 21.5008 11 21.5Z" fill="#3A001E" stroke="#3A001E" stroke-width="1.5" stroke-linecap="round" stroke-linejoin="round"/>
<rect x="11" y="1.5" width="11" height="11" rx="5.5" fill="#865A57"/>
<path d="M17.179 4.18182L17.0682 8.25568H16.0284L15.9148 4.18182H17.179ZM16.5483 10.0739C16.3608 10.0739 16.1998 10.0076 16.0653 9.875C15.9309 9.74053 15.8646 9.57955 15.8665 9.39205C15.8646 9.20644 15.9309 9.04735 16.0653 8.91477C16.1998 8.7822 16.3608 8.71591 16.5483 8.71591C16.7282 8.71591 16.8864 8.7822 17.0227 8.91477C17.1591 9.04735 17.2282 9.20644 17.2301 9.39205C17.2282 9.51705 17.1951 9.63163 17.1307 9.7358C17.0682 9.83807 16.9858 9.92045 16.8835 9.98295C16.7812 10.0436 16.6695 10.0739 16.5483 10.0739Z" fill="white"/>
</svg>
