<svg width="27" height="28" viewBox="0 0 27 28" fill="none" xmlns="http://www.w3.org/2000/svg">
<path fill-rule="evenodd" clip-rule="evenodd" d="M6.96667 1.21573e-07H20.0347C21.3907 1.21573e-07 22.324 1.19209e-07 23.1093 0.265668C23.8431 0.519196 24.5073 0.934442 25.0502 1.47919C25.5931 2.02393 26.0003 2.68353 26.24 3.4068C26.5013 4.18427 26.5 5.1089 26.5 6.48022V24.9051C26.5 26.8143 24.1973 27.9499 22.6813 26.5942C22.6327 26.5487 22.568 26.5233 22.5007 26.5233C22.4334 26.5233 22.3686 26.5487 22.32 26.5942L21.6747 27.1698C20.4373 28.2767 18.5627 28.2767 17.3253 27.1698C17.1014 26.9655 16.8064 26.8519 16.5 26.8519C16.1936 26.8519 15.8986 26.9655 15.6747 27.1698C14.4373 28.2767 12.5627 28.2767 11.3253 27.1698C11.1014 26.9655 10.8064 26.8519 10.5 26.8519C10.1936 26.8519 9.89862 26.9655 9.67467 27.1698C8.43733 28.2767 6.56267 28.2767 5.32533 27.1698L4.68133 26.5942C4.63263 26.5483 4.56763 26.5227 4.5 26.5227C4.43237 26.5227 4.36737 26.5483 4.31867 26.5942C2.80267 27.9486 0.5 26.8143 0.5 24.9051V6.48152C0.5 5.1089 0.5 4.18427 0.76 3.4068C0.999747 2.68353 1.40688 2.02393 1.94981 1.47919C2.49274 0.934442 3.15687 0.519196 3.89067 0.265668C4.67733 -0.00130218 5.61067 1.21573e-07 6.96667 1.21573e-07ZM7.16 1.95344C5.532 1.95344 4.97067 1.96647 4.54667 2.11102C4.10385 2.26609 3.70349 2.51858 3.37657 2.84895C3.04965 3.17933 2.80492 3.57874 2.66133 4.01628C2.51333 4.45645 2.50133 5.03728 2.50133 6.66775V24.9051C2.50133 25.0614 2.58 25.1551 2.68 25.2007C2.72563 25.2219 2.77649 25.2301 2.82667 25.2242C2.88062 25.2151 2.93043 25.1901 2.96933 25.1525C3.38655 24.7774 3.93291 24.5692 4.5 24.5692C5.06709 24.5692 5.61345 24.7774 6.03067 25.1525L6.67467 25.7281C6.89862 25.9324 7.1936 26.046 7.5 26.046C7.8064 26.046 8.10138 25.9324 8.32533 25.7281C8.91792 25.1949 9.69422 24.8988 10.5 24.8988C11.3058 24.8988 12.0821 25.1949 12.6747 25.7281C12.8986 25.9324 13.1936 26.046 13.5 26.046C13.8064 26.046 14.1014 25.9324 14.3253 25.7281C14.9179 25.1949 15.6942 24.8988 16.5 24.8988C17.3058 24.8988 18.0821 25.1949 18.6747 25.7281C18.8986 25.9324 19.1936 26.046 19.5 26.046C19.8064 26.046 20.1014 25.9324 20.3253 25.7281L20.9693 25.1525C21.3866 24.7774 21.9329 24.5692 22.5 24.5692C23.0671 24.5692 23.6134 24.7774 24.0307 25.1525C24.088 25.2046 24.1373 25.2202 24.1747 25.2242C24.2244 25.2298 24.2748 25.2217 24.32 25.2007C24.42 25.1551 24.5 25.0601 24.5 24.9051V6.66775C24.5 5.03728 24.4867 4.45645 24.34 4.01498C24.196 3.57741 23.9508 3.17808 23.6234 2.84792C23.296 2.51776 22.8952 2.26562 22.452 2.11102C22.0293 1.96777 21.468 1.95475 19.84 1.95475L7.16 1.95344ZM5.83467 8.13935C5.83467 7.8803 5.94002 7.63187 6.12756 7.4487C6.3151 7.26553 6.56945 7.16262 6.83467 7.16262H7.50133C7.76655 7.16262 8.0209 7.26553 8.20844 7.4487C8.39598 7.63187 8.50133 7.8803 8.50133 8.13935C8.50133 8.39839 8.39598 8.64682 8.20844 8.82999C8.0209 9.01316 7.76655 9.11607 7.50133 9.11607H6.83467C6.56945 9.11607 6.3151 9.01316 6.12756 8.82999C5.94002 8.64682 5.83467 8.39839 5.83467 8.13935ZM10.5013 8.13935C10.5013 7.8803 10.6067 7.63187 10.7942 7.4487C10.9818 7.26553 11.2361 7.16262 11.5013 7.16262H20.168C20.4332 7.16262 20.6876 7.26553 20.8751 7.4487C21.0626 7.63187 21.168 7.8803 21.168 8.13935C21.168 8.39839 21.0626 8.64682 20.8751 8.82999C20.6876 9.01316 20.4332 9.11607 20.168 9.11607H11.5013C11.2361 9.11607 10.9818 9.01316 10.7942 8.82999C10.6067 8.64682 10.5013 8.39839 10.5013 8.13935ZM5.83467 12.6974C5.83467 12.4383 5.94002 12.1899 6.12756 12.0067C6.3151 11.8236 6.56945 11.7207 6.83467 11.7207H7.50133C7.76655 11.7207 8.0209 11.8236 8.20844 12.0067C8.39598 12.1899 8.50133 12.4383 8.50133 12.6974C8.50133 12.9564 8.39598 13.2049 8.20844 13.388C8.0209 13.5712 7.76655 13.6741 7.50133 13.6741H6.83467C6.56945 13.6741 6.3151 13.5712 6.12756 13.388C5.94002 13.2049 5.83467 12.9564 5.83467 12.6974ZM10.5013 12.6974C10.5013 12.4383 10.6067 12.1899 10.7942 12.0067C10.9818 11.8236 11.2361 11.7207 11.5013 11.7207H20.168C20.4332 11.7207 20.6876 11.8236 20.8751 12.0067C21.0626 12.1899 21.168 12.4383 21.168 12.6974C21.168 12.9564 21.0626 13.2049 20.8751 13.388C20.6876 13.5712 20.4332 13.6741 20.168 13.6741H11.5013C11.2361 13.6741 10.9818 13.5712 10.7942 13.388C10.6067 13.2049 10.5013 12.9564 10.5013 12.6974ZM5.83467 17.2554C5.83467 16.9964 5.94002 16.7479 6.12756 16.5648C6.3151 16.3816 6.56945 16.2787 6.83467 16.2787H7.50133C7.76655 16.2787 8.0209 16.3816 8.20844 16.5648C8.39598 16.7479 8.50133 16.9964 8.50133 17.2554C8.50133 17.5145 8.39598 17.7629 8.20844 17.9461C8.0209 18.1292 7.76655 18.2321 7.50133 18.2321H6.83467C6.56945 18.2321 6.3151 18.1292 6.12756 17.9461C5.94002 17.7629 5.83467 17.5145 5.83467 17.2554ZM10.5013 17.2554C10.5013 16.9964 10.6067 16.7479 10.7942 16.5648C10.9818 16.3816 11.2361 16.2787 11.5013 16.2787H20.168C20.4332 16.2787 20.6876 16.3816 20.8751 16.5648C21.0626 16.7479 21.168 16.9964 21.168 17.2554C21.168 17.5145 21.0626 17.7629 20.8751 17.9461C20.6876 18.1292 20.4332 18.2321 20.168 18.2321H11.5013C11.2361 18.2321 10.9818 18.1292 10.7942 17.9461C10.6067 17.7629 10.5013 17.5145 10.5013 17.2554Z" fill="black"/>
</svg>
