<svg width="17" height="15" viewBox="0 0 17 15" fill="none" xmlns="http://www.w3.org/2000/svg">
<path d="M0 0H17V15H10C4.47715 15 0 10.5228 0 5V0Z" fill="white"/>
<path d="M11.5001 3.07715V5.84638L13.3001 6.74638" stroke="black" stroke-linecap="round" stroke-linejoin="round"/>
<path d="M15.8796 6.53871C15.636 7.56538 15.0394 8.47382 14.1941 9.10527C13.3487 9.73672 12.3083 10.051 11.2547 9.99325C10.2011 9.93548 9.20137 9.50931 8.43011 8.78922C7.65885 8.06912 7.16516 7.1009 7.03531 6.05376C6.90546 5.00661 7.14772 3.94713 7.71974 3.06047C8.29177 2.17382 9.15718 1.51636 10.1647 1.20301C11.1723 0.889658 12.2579 0.940333 13.2319 1.34618C14.2059 1.75203 15.0063 2.48724 15.4933 3.42333" stroke="black" stroke-linecap="round"/>
<path d="M16.0001 2.0387V3.76946H14.2693" stroke="black" stroke-linecap="round" stroke-linejoin="round"/>
</svg>
