<svg width="29" height="30" viewBox="0 0 29 30" fill="none" xmlns="http://www.w3.org/2000/svg">
<path d="M14.4985 7.73151V16.0392L19.8985 18.7392" stroke="black" stroke-width="2" stroke-linecap="round" stroke-linejoin="round"/>
<path d="M27.6369 18.1161C26.9062 21.1961 25.1165 23.9215 22.5804 25.8158C20.0442 27.7101 16.9231 28.6531 13.7624 28.4797C10.6016 28.3064 7.60227 27.0279 5.28849 24.8676C2.97471 22.7074 1.49364 19.8027 1.1041 16.6613C0.714559 13.5198 1.44133 10.3414 3.1574 7.68142C4.87347 5.02145 7.4697 3.04909 10.4924 2.10903C13.5151 1.16897 16.772 1.321 19.694 2.53854C22.616 3.75609 25.0172 5.96171 26.478 8.76998" stroke="black" stroke-width="2" stroke-linecap="round"/>
<path d="M27.9985 4.61612V9.80842H22.8062" stroke="black" stroke-width="2" stroke-linecap="round" stroke-linejoin="round"/>
</svg>
