<svg width="35" height="34" viewBox="0 0 35 34" fill="none" xmlns="http://www.w3.org/2000/svg">
<g clip-path="url(#clip0_436_1084)">
<path d="M1.22566 16.7967C1.22487 19.6534 1.97712 22.4427 3.40751 24.9013L1.08887 33.3014L9.75249 31.0474C12.1487 32.3417 14.8336 33.0199 17.5619 33.0201H17.569C26.5757 33.0201 33.9074 25.748 33.9112 16.8095C33.9129 12.4782 32.2145 8.40533 29.1288 5.34112C26.0435 2.27716 21.9403 0.588891 17.5684 0.586914C8.56063 0.586914 1.22952 7.8587 1.2258 16.7967" fill="url(#paint0_linear_436_1084)"/>
<path d="M0.642109 16.7913C0.64118 19.7507 1.42039 22.6398 2.90178 25.1864L0.5 33.8876L9.47427 31.5528C11.947 32.8905 14.731 33.5958 17.5639 33.5969H17.5712C26.901 33.5969 34.496 26.0631 34.5 16.8047C34.5016 12.3178 32.7421 8.09846 29.5461 4.92447C26.3497 1.75087 22.0997 0.00184496 17.5712 0C8.23978 0 0.645828 7.53271 0.642109 16.7913ZM5.98662 24.7478L5.65153 24.22C4.24292 21.9976 3.49944 19.4294 3.5005 16.7923C3.50342 9.09685 9.8152 2.83597 17.5765 2.83597C21.3351 2.83755 24.8674 4.29138 27.5242 6.92915C30.1808 9.56718 31.6427 13.0739 31.6417 16.8036C31.6383 24.4991 25.3264 30.7608 17.5712 30.7608H17.5656C15.0404 30.7595 12.5639 30.0866 10.4041 28.815L9.89011 28.5126L4.56459 29.898L5.98662 24.7478Z" fill="url(#paint1_linear_436_1084)"/>
<path d="M13.3401 9.77159C13.0232 9.07274 12.6897 9.05864 12.3884 9.04639C12.1416 9.03584 11.8595 9.03663 11.5777 9.03663C11.2956 9.03663 10.8372 9.14193 10.4498 9.56166C10.062 9.98178 8.96924 10.997 8.96924 13.0619C8.96924 15.1269 10.485 17.1226 10.6963 17.4029C10.9079 17.6827 13.6226 22.0557 17.922 23.7381C21.4952 25.1362 22.2223 24.8581 22.9978 24.788C23.7734 24.7181 25.5005 23.773 25.8529 22.7929C26.2055 21.813 26.2055 20.973 26.0998 20.7975C25.9941 20.6226 25.712 20.5176 25.289 20.3078C24.866 20.098 22.7863 19.0824 22.3986 18.9424C22.0108 18.8024 21.7288 18.7326 21.4467 19.1528C21.1646 19.5724 20.3546 20.5176 20.1077 20.7975C19.8611 21.078 19.6142 21.113 19.1913 20.903C18.768 20.6924 17.4058 20.2498 15.7896 18.8201C14.5321 17.7076 13.6832 16.3337 13.4364 15.9135C13.1896 15.4939 13.41 15.2664 13.6221 15.0573C13.8121 14.8692 14.0452 14.5672 14.2569 14.3222C14.4678 14.0771 14.5382 13.9022 14.6792 13.6223C14.8204 13.3421 14.7498 13.097 14.6442 12.8871C14.5382 12.6771 13.7162 10.6014 13.3401 9.77159Z" fill="white"/>
</g>
<defs>
<linearGradient id="paint0_linear_436_1084" x1="1642.21" y1="3272.03" x2="1642.21" y2="0.586914" gradientUnits="userSpaceOnUse">
<stop stop-color="#1FAF38"/>
<stop offset="1" stop-color="#60D669"/>
</linearGradient>
<linearGradient id="paint1_linear_436_1084" x1="1700.5" y1="3388.76" x2="1700.5" y2="0" gradientUnits="userSpaceOnUse">
<stop stop-color="#F9F9F9"/>
<stop offset="1" stop-color="white"/>
</linearGradient>
<clipPath id="clip0_436_1084">
<rect width="34" height="34" fill="white" transform="translate(0.5)"/>
</clipPath>
</defs>
</svg>
